# xmcd
#
# Track frame offsets: 
#        150
#        16016
#        30484
#        52352
#        71071
#        81829
#        99111
#        114206
#        134497
#        148442
#        164107
#        180390
#
# Disc length: 2624 seconds
#
# Revision: 0
# Processed by: cddbd v1.5.2PL0 Copyright (c) Steve Scherf et al.
# Submitted via: ExactAudioCopy v0.99pb4
#
DISCID=a50a3e0c
DTITLE=Various Artist - Bose Private Performances Collection: God Bless the U
DTITLE=S.A.
DYEAR=1900
DGENRE=Country
TTITLE0=Johnny Cash with Marty Robbins - Song of the Patriot
TTITLE1=Lee Greenwood - God Bless the U.S.A.
TTITLE2=Willie Nelson - City of New Orleans
TTITLE3=Don Williams - Maggie's Dream
TTITLE4=Hank Williams, Jr. - The American Dream
TTITLE5=Glen Campbell - An American Trilogy
TTITLE6=Charlie Daniels Band - In America
TTITLE7=Larry Gatlin and Gatlin Bros. - We're Number One
TTITLE8=The Wright Brothers - Made In the U.S.A.
TTITLE9=B.J. Thomas - Two Car Garage
TTITLE10=Emmylou Harris - Green Rolling Hills
TTITLE11=Glen Campbell - Old Home Town
EXTD=
EXTT0=
EXTT1=
EXTT2=
EXTT3=
EXTT4=
EXTT5=
EXTT6=
EXTT7=
EXTT8=
EXTT9=
EXTT10=
EXTT11=
PLAYORDER=
